<svg width="128" height="128" viewBox="0 0 128 128" fill="none" xmlns="http://www.w3.org/2000/svg">
<rect width="128" height="128" rx="18" fill="#131212"/>
<path d="M32.3871 101.032C32.3871 87.0505 30.487 67.3686 35.1839 51.3548M35.1839 51.3548C40.7276 32.4544 53.8387 22 93.3549 25.3871M35.1839 51.3548C35.1839 69.4445 52.7222 72.1667 93.3549 71" stroke="white" stroke-width="10"/>
<path d="M96.5 77.5C100.09 77.5 103 74.5898 103 71C103 67.4101 100.09 64.5 96.5 64.5C92.9101 64.5 90 67.4101 90 71C90 74.5898 92.9101 77.5 96.5 77.5Z" fill="white"/>
<path d="M96.5 75.5C98.9853 75.5 101 73.4853 101 71C101 68.5147 98.9853 66.5 96.5 66.5C94.0147 66.5 92 68.5147 92 71C92 73.4853 94.0147 75.5 96.5 75.5Z" fill="#6800CF"/>
<path d="M96.5 32.5C100.09 32.5 103 29.5898 103 26C103 22.4101 100.09 19.5 96.5 19.5C92.9101 19.5 90 22.4101 90 26C90 29.5898 92.9101 32.5 96.5 32.5Z" fill="white"/>
<path d="M96.5 30.5C98.9853 30.5 101 28.4853 101 26C101 23.5147 98.9853 21.5 96.5 21.5C94.0147 21.5 92 23.5147 92 26C92 28.4853 94.0147 30.5 96.5 30.5Z" fill="#FFEB34"/>
<path d="M33 110C36.5899 110 39.5 107.09 39.5 103.5C39.5 99.9101 36.5899 97 33 97C29.4101 97 26.5 99.9101 26.5 103.5C26.5 107.09 29.4101 110 33 110Z" fill="white"/>
<path d="M33 108C35.4853 108 37.5 105.985 37.5 103.5C37.5 101.015 35.4853 99 33 99C30.5147 99 28.5 101.015 28.5 103.5C28.5 105.985 30.5147 108 33 108Z" fill="#0FCD4F"/>
<path d="M35 60C38.5899 60 41.5 57.0898 41.5 53.5C41.5 49.9101 38.5899 47 35 47C31.4101 47 28.5 49.9101 28.5 53.5C28.5 57.0898 31.4101 60 35 60Z" fill="white"/>
<path d="M35 58C37.4853 58 39.5 55.9853 39.5 53.5C39.5 51.0147 37.4853 49 35 49C32.5147 49 30.5 51.0147 30.5 53.5C30.5 55.9853 32.5147 58 35 58Z" fill="#0FCD4F"/>
</svg>
