<svg width="90" height="109" viewBox="0 0 90 109" fill="none" xmlns="http://www.w3.org/2000/svg">
<g clip-path="url(#clip0_12_288)">
<path d="M4.35489 101.613C4.35488 83.6364 1.91188 58.331 7.95076 37.7419M7.95076 37.7419C15.0783 13.4413 31.9355 1.46031e-05 82.742 4.35484M7.95076 37.7419C7.95076 61 30.5 64.5 82.742 63" stroke="white" stroke-width="4"/>
<path d="M85.6452 8.70968C88.0503 8.70968 90 6.75995 90 4.35484C90 1.94973 88.0503 0 85.6452 0C83.2401 0 81.2904 1.94973 81.2904 4.35484C81.2904 6.75995 83.2401 8.70968 85.6452 8.70968Z" fill="white"/>
<path d="M85.3548 67.2096C87.7599 67.2096 89.7096 65.2599 89.7096 62.8548C89.7096 60.4497 87.7599 58.5 85.3548 58.5C82.9497 58.5 81 60.4497 81 62.8548C81 65.2599 82.9497 67.2096 85.3548 67.2096Z" fill="white"/>
<path d="M4.35484 108.871C6.75995 108.871 8.70968 106.921 8.70968 104.516C8.70968 102.111 6.75995 100.161 4.35484 100.161C1.94973 100.161 0 102.111 0 104.516C0 106.921 1.94973 108.871 4.35484 108.871Z" fill="white"/>
<path d="M7.85484 43.2097C10.26 43.2097 12.2097 41.2599 12.2097 38.8548C12.2097 36.4497 10.26 34.5 7.85484 34.5C5.44973 34.5 3.5 36.4497 3.5 38.8548C3.5 41.2599 5.44973 43.2097 7.85484 43.2097Z" fill="white"/>
<path d="M4.5 107.5C6.15685 107.5 7.5 106.157 7.5 104.5C7.5 102.843 6.15685 101.5 4.5 101.5C2.84315 101.5 1.5 102.843 1.5 104.5C1.5 106.157 2.84315 107.5 4.5 107.5Z" fill="#0FCD4F"/>
<path d="M85.5 66C87.1569 66 88.5 64.6569 88.5 63C88.5 61.3431 87.1569 60 85.5 60C83.8431 60 82.5 61.3431 82.5 63C82.5 64.6569 83.8431 66 85.5 66Z" fill="#6800CF"/>
<path d="M7.85 41.8C9.50685 41.8 10.85 40.4569 10.85 38.8C10.85 37.1431 9.50685 35.8 7.85 35.8C6.19315 35.8 4.85 37.1431 4.85 38.8C4.85 40.4569 6.19315 41.8 7.85 41.8Z" fill="#0FCD4F"/>
<path d="M85.7 7.5C87.3569 7.5 88.7 6.15685 88.7 4.5C88.7 2.84315 87.3569 1.5 85.7 1.5C84.0431 1.5 82.7 2.84315 82.7 4.5C82.7 6.15685 84.0431 7.5 85.7 7.5Z" fill="#FFEB34"/>
</g>
<defs>
<clipPath id="clip0_12_288">
<rect width="90" height="109" fill="white"/>
</clipPath>
</defs>
</svg>
