<svg width="830" height="113" viewBox="0 0 830 113" fill="none" xmlns="http://www.w3.org/2000/svg">
<path d="M42 49L52 58.2308L52.8333 59M55 61L52.8333 59M52.8333 59L70 39M56 83.5C62 80.8333 75.8 72.5 83 60.5V27.5C74.1667 20.8333 51.1 11.5 29.5 27.5V60.5C32.6667 65.8334 42.4 77.9 56 83.5Z" stroke="#696969" stroke-width="6"/>
<path d="M124.706 25.9725C123.585 25.9725 122.572 26.1692 121.667 26.5625C120.762 26.9362 119.995 27.4967 119.366 28.244C118.737 28.9717 118.255 29.8665 117.921 30.9285C117.586 31.9708 117.419 33.1508 117.419 34.4685C117.419 36.1992 117.685 37.7037 118.216 38.982C118.766 40.2603 119.573 41.2437 120.635 41.932C121.716 42.6203 123.063 42.9645 124.676 42.9645C125.6 42.9645 126.476 42.8858 127.302 42.7285C128.128 42.5712 128.934 42.3745 129.721 42.1385V44.4395C128.934 44.7345 128.118 44.9508 127.272 45.0885C126.446 45.2262 125.453 45.295 124.293 45.295C122.149 45.295 120.359 44.8525 118.924 43.9675C117.488 43.0825 116.406 41.8238 115.679 40.1915C114.971 38.5592 114.617 36.6417 114.617 34.439C114.617 32.846 114.833 31.3907 115.266 30.073C115.718 28.7553 116.367 27.6147 117.213 26.651C118.078 25.6873 119.14 24.9498 120.399 24.4385C121.657 23.9075 123.103 23.642 124.735 23.642C125.817 23.642 126.859 23.7502 127.862 23.9665C128.865 24.1828 129.76 24.4877 130.547 24.881L129.485 27.123C128.836 26.828 128.108 26.5625 127.302 26.3265C126.515 26.0905 125.65 25.9725 124.706 25.9725ZM147.711 37.0645C147.711 38.3822 147.534 39.5523 147.18 40.575C146.845 41.578 146.354 42.4335 145.705 43.1415C145.075 43.8495 144.299 44.3903 143.374 44.764C142.47 45.118 141.457 45.295 140.336 45.295C139.293 45.295 138.33 45.118 137.445 44.764C136.56 44.3903 135.793 43.8495 135.144 43.1415C134.495 42.4335 133.983 41.578 133.61 40.575C133.256 39.5523 133.079 38.3822 133.079 37.0645C133.079 35.3142 133.374 33.8392 133.964 32.6395C134.554 31.4202 135.399 30.4958 136.501 29.8665C137.602 29.2175 138.91 28.893 140.424 28.893C141.86 28.893 143.119 29.2175 144.2 29.8665C145.302 30.4958 146.157 31.4202 146.767 32.6395C147.396 33.8392 147.711 35.3142 147.711 37.0645ZM135.763 37.0645C135.763 38.3035 135.921 39.3852 136.235 40.3095C136.57 41.2142 137.081 41.9123 137.769 42.404C138.458 42.8957 139.333 43.1415 140.395 43.1415C141.457 43.1415 142.332 42.8957 143.02 42.404C143.709 41.9123 144.21 41.2142 144.525 40.3095C144.859 39.3852 145.026 38.3035 145.026 37.0645C145.026 35.8058 144.859 34.734 144.525 33.849C144.19 32.964 143.679 32.2855 142.991 31.8135C142.322 31.3218 141.447 31.076 140.365 31.076C138.753 31.076 137.582 31.607 136.855 32.669C136.127 33.731 135.763 35.1962 135.763 37.0645ZM169.171 28.893C170.961 28.893 172.298 29.3552 173.183 30.2795C174.068 31.1842 174.511 32.6592 174.511 34.7045V45H171.944V34.8225C171.944 33.5835 171.679 32.6493 171.148 32.02C170.636 31.3907 169.83 31.076 168.729 31.076C167.195 31.076 166.093 31.5185 165.425 32.4035C164.776 33.2885 164.451 34.5767 164.451 36.268V45H161.885V34.8225C161.885 33.9965 161.767 33.3082 161.531 32.7575C161.295 32.1872 160.941 31.7643 160.469 31.489C159.997 31.2137 159.387 31.076 158.64 31.076C157.578 31.076 156.742 31.3022 156.132 31.7545C155.522 32.1872 155.08 32.8263 154.805 33.672C154.549 34.5177 154.421 35.56 154.421 36.799V45H151.825V29.188H153.92L154.303 31.3415H154.451C154.785 30.7908 155.188 30.3385 155.66 29.9845C156.152 29.6108 156.693 29.3355 157.283 29.1585C157.873 28.9815 158.482 28.893 159.112 28.893C160.331 28.893 161.344 29.1093 162.15 29.542C162.976 29.9747 163.576 30.6433 163.95 31.548H164.097C164.628 30.6433 165.346 29.9747 166.251 29.542C167.175 29.1093 168.148 28.893 169.171 28.893ZM186.917 28.893C188.864 28.893 190.428 29.5715 191.608 30.9285C192.808 32.2855 193.407 34.3308 193.407 37.0645C193.407 38.8542 193.132 40.3685 192.581 41.6075C192.05 42.8268 191.293 43.7512 190.31 44.3805C189.346 44.9902 188.206 45.295 186.888 45.295C186.082 45.295 185.364 45.1868 184.734 44.9705C184.105 44.7542 183.564 44.4788 183.112 44.1445C182.679 43.7905 182.306 43.407 181.991 42.994H181.814C181.853 43.3283 181.893 43.7512 181.932 44.2625C181.971 44.7738 181.991 45.2163 181.991 45.59V52.08H179.395V29.188H181.519L181.873 31.3415H181.991C182.306 30.8892 182.679 30.4762 183.112 30.1025C183.564 29.7288 184.095 29.4338 184.705 29.2175C185.334 29.0012 186.072 28.893 186.917 28.893ZM186.445 31.076C185.383 31.076 184.528 31.2825 183.879 31.6955C183.23 32.0888 182.758 32.6887 182.463 33.495C182.168 34.3013 182.011 35.324 181.991 36.563V37.0645C181.991 38.3625 182.129 39.4638 182.404 40.3685C182.679 41.2732 183.141 41.9615 183.79 42.4335C184.459 42.9055 185.364 43.1415 186.504 43.1415C187.468 43.1415 188.255 42.876 188.864 42.345C189.494 41.814 189.956 41.0962 190.251 40.1915C190.566 39.2672 190.723 38.215 190.723 37.035C190.723 35.2257 190.369 33.7802 189.661 32.6985C188.973 31.6168 187.901 31.076 186.445 31.076ZM204.919 28.893C205.214 28.893 205.529 28.9127 205.863 28.952C206.217 28.9717 206.522 29.011 206.778 29.07L206.453 31.4595C206.198 31.4005 205.913 31.3513 205.598 31.312C205.303 31.2727 205.018 31.253 204.742 31.253C204.133 31.253 203.553 31.3808 203.002 31.6365C202.451 31.8922 201.96 32.256 201.527 32.728C201.094 33.1803 200.75 33.731 200.494 34.38C200.258 35.029 200.14 35.7567 200.14 36.563V45H197.544V29.188H199.668L199.963 32.079H200.081C200.416 31.489 200.819 30.958 201.291 30.486C201.763 29.9943 202.304 29.6108 202.913 29.3355C203.523 29.0405 204.192 28.893 204.919 28.893ZM215.143 28.9225C217.07 28.9225 218.496 29.3453 219.42 30.191C220.345 31.0367 220.807 32.3838 220.807 34.2325V45H218.919L218.417 42.758H218.299C217.847 43.3283 217.375 43.8102 216.883 44.2035C216.411 44.5772 215.861 44.8525 215.231 45.0295C214.622 45.2065 213.874 45.295 212.989 45.295C212.045 45.295 211.19 45.1278 210.423 44.7935C209.675 44.4592 209.085 43.9478 208.653 43.2595C208.22 42.5515 208.004 41.6665 208.004 40.6045C208.004 39.0312 208.623 37.8217 209.862 36.976C211.101 36.1107 213.009 35.6387 215.585 35.56L218.27 35.4715V34.5275C218.27 33.2098 217.985 32.2953 217.414 31.784C216.844 31.2727 216.038 31.017 214.995 31.017C214.169 31.017 213.383 31.1448 212.635 31.4005C211.888 31.6365 211.19 31.9118 210.541 32.2265L209.744 30.2795C210.433 29.9058 211.249 29.5912 212.193 29.3355C213.137 29.0602 214.12 28.9225 215.143 28.9225ZM215.91 37.3595C213.943 37.4382 212.576 37.7528 211.809 38.3035C211.062 38.8542 210.688 39.631 210.688 40.634C210.688 41.519 210.954 42.168 211.485 42.581C212.035 42.994 212.734 43.2005 213.579 43.2005C214.917 43.2005 216.028 42.8367 216.913 42.109C217.798 41.3617 218.24 40.221 218.24 38.687V37.271L215.91 37.3595Z" fill="#696969"/>
<path d="M382.841 65.8785H390.128V76.2035C388.987 76.5772 387.837 76.8525 386.676 77.0295C385.516 77.2065 384.198 77.295 382.723 77.295C380.54 77.295 378.701 76.8623 377.207 75.997C375.712 75.112 374.571 73.8632 373.785 72.2505C373.018 70.6182 372.634 68.6908 372.634 66.4685C372.634 64.2658 373.067 62.3582 373.932 60.7455C374.798 59.1328 376.037 57.884 377.649 56.999C379.282 56.0943 381.248 55.642 383.549 55.642C384.729 55.642 385.84 55.7502 386.883 55.9665C387.945 56.1828 388.928 56.4877 389.833 56.881L388.83 59.182C388.082 58.8477 387.237 58.5625 386.293 58.3265C385.368 58.0905 384.405 57.9725 383.402 57.9725C381.73 57.9725 380.294 58.3167 379.095 59.005C377.895 59.6933 376.981 60.6767 376.351 61.955C375.722 63.2137 375.407 64.7182 375.407 66.4685C375.407 68.1402 375.673 69.625 376.204 70.923C376.754 72.2013 377.61 73.2043 378.77 73.932C379.931 74.64 381.455 74.994 383.343 74.994C383.972 74.994 384.523 74.9743 384.995 74.935C385.486 74.876 385.929 74.8072 386.322 74.7285C386.735 74.6498 387.119 74.5712 387.473 74.4925V68.2385H382.841V65.8785ZM400.793 60.9225C402.72 60.9225 404.146 61.3453 405.071 62.191C405.995 63.0367 406.457 64.3838 406.457 66.2325V77H404.569L404.068 74.758H403.95C403.497 75.3283 403.025 75.8102 402.534 76.2035C402.062 76.5772 401.511 76.8525 400.882 77.0295C400.272 77.2065 399.525 77.295 398.64 77.295C397.696 77.295 396.84 77.1278 396.073 76.7935C395.326 76.4592 394.736 75.9478 394.303 75.2595C393.87 74.5515 393.654 73.6665 393.654 72.6045C393.654 71.0312 394.274 69.8217 395.513 68.976C396.752 68.1107 398.659 67.6387 401.236 67.56L403.92 67.4715V66.5275C403.92 65.2098 403.635 64.2953 403.065 63.784C402.494 63.2727 401.688 63.017 400.646 63.017C399.82 63.017 399.033 63.1448 398.286 63.4005C397.538 63.6365 396.84 63.9118 396.191 64.2265L395.395 62.2795C396.083 61.9058 396.899 61.5912 397.843 61.3355C398.787 61.0602 399.77 60.9225 400.793 60.9225ZM401.56 69.3595C399.593 69.4382 398.227 69.7528 397.46 70.3035C396.712 70.8542 396.339 71.631 396.339 72.634C396.339 73.519 396.604 74.168 397.135 74.581C397.686 74.994 398.384 75.2005 399.23 75.2005C400.567 75.2005 401.678 74.8367 402.563 74.109C403.448 73.3617 403.891 72.221 403.891 70.687V69.271L401.56 69.3595ZM418.716 60.893C419.011 60.893 419.325 60.9127 419.66 60.952C420.014 60.9717 420.319 61.011 420.574 61.07L420.25 63.4595C419.994 63.4005 419.709 63.3513 419.394 63.312C419.099 63.2727 418.814 63.253 418.539 63.253C417.929 63.253 417.349 63.3808 416.798 63.6365C416.248 63.8922 415.756 64.256 415.323 64.728C414.891 65.1803 414.546 65.731 414.291 66.38C414.055 67.029 413.937 67.7567 413.937 68.563V77H411.341V61.188H413.465L413.76 64.079H413.878C414.212 63.489 414.615 62.958 415.087 62.486C415.559 61.9943 416.1 61.6108 416.71 61.3355C417.319 61.0405 417.988 60.893 418.716 60.893ZM428.939 60.9225C430.866 60.9225 432.292 61.3453 433.217 62.191C434.141 63.0367 434.603 64.3838 434.603 66.2325V77H432.715L432.214 74.758H432.096C431.643 75.3283 431.171 75.8102 430.68 76.2035C430.208 76.5772 429.657 76.8525 429.028 77.0295C428.418 77.2065 427.671 77.295 426.786 77.295C425.842 77.295 424.986 77.1278 424.219 76.7935C423.472 76.4592 422.882 75.9478 422.449 75.2595C422.016 74.5515 421.8 73.6665 421.8 72.6045C421.8 71.0312 422.42 69.8217 423.659 68.976C424.898 68.1107 426.805 67.6387 429.382 67.56L432.066 67.4715V66.5275C432.066 65.2098 431.781 64.2953 431.211 63.784C430.64 63.2727 429.834 63.017 428.792 63.017C427.966 63.017 427.179 63.1448 426.432 63.4005C425.684 63.6365 424.986 63.9118 424.337 64.2265L423.541 62.2795C424.229 61.9058 425.045 61.5912 425.989 61.3355C426.933 61.0602 427.916 60.9225 428.939 60.9225ZM429.706 69.3595C427.739 69.4382 426.373 69.7528 425.606 70.3035C424.858 70.8542 424.485 71.631 424.485 72.634C424.485 73.519 424.75 74.168 425.281 74.581C425.832 74.994 426.53 75.2005 427.376 75.2005C428.713 75.2005 429.824 74.8367 430.709 74.109C431.594 73.3617 432.037 72.221 432.037 70.687V69.271L429.706 69.3595ZM447.098 60.893C448.986 60.893 450.412 61.3552 451.375 62.2795C452.339 63.1842 452.821 64.6592 452.821 66.7045V77H450.254V66.8815C450.254 65.6032 449.969 64.6493 449.399 64.02C448.828 63.3907 447.934 63.076 446.714 63.076C444.964 63.076 443.754 63.5677 443.086 64.551C442.417 65.5343 442.083 66.9503 442.083 68.799V77H439.487V61.188H441.581L441.965 63.3415H442.112C442.466 62.7908 442.899 62.3385 443.41 61.9845C443.941 61.6108 444.521 61.3355 445.151 61.1585C445.78 60.9815 446.429 60.893 447.098 60.893ZM463.003 75.171C463.396 75.171 463.8 75.1415 464.213 75.0825C464.626 75.0038 464.96 74.9252 465.216 74.8465V76.823C464.94 76.9607 464.547 77.0688 464.036 77.1475C463.524 77.2458 463.033 77.295 462.561 77.295C461.735 77.295 460.968 77.1573 460.26 76.882C459.571 76.587 459.011 76.0855 458.578 75.3775C458.145 74.6695 457.929 73.6763 457.929 72.398V63.194H455.687V61.955L457.959 60.9225L458.991 57.5595H460.525V61.188H465.098V63.194H460.525V72.339C460.525 73.3027 460.751 74.0205 461.204 74.4925C461.676 74.9448 462.275 75.171 463.003 75.171ZM470.978 61.188V77H468.382V61.188H470.978ZM469.709 55.2585C470.103 55.2585 470.447 55.3962 470.742 55.6715C471.056 55.9272 471.214 56.3402 471.214 56.9105C471.214 57.4612 471.056 57.8742 470.742 58.1495C470.447 58.4248 470.103 58.5625 469.709 58.5625C469.277 58.5625 468.913 58.4248 468.618 58.1495C468.323 57.8742 468.175 57.4612 468.175 56.9105C468.175 56.3402 468.323 55.9272 468.618 55.6715C468.913 55.3962 469.277 55.2585 469.709 55.2585ZM481.592 77.295C479.626 77.295 478.052 76.6165 476.872 75.2595C475.692 73.8828 475.102 71.8375 475.102 69.1235C475.102 66.4095 475.692 64.3642 476.872 62.9875C478.072 61.5912 479.655 60.893 481.622 60.893C482.448 60.893 483.166 61.0012 483.775 61.2175C484.385 61.4142 484.916 61.6895 485.368 62.0435C485.821 62.3975 486.204 62.7908 486.519 63.2235H486.696C486.676 62.9678 486.637 62.5942 486.578 62.1025C486.538 61.5912 486.519 61.188 486.519 60.893V54.58H489.115V77H487.02L486.637 74.876H486.519C486.204 75.3283 485.821 75.7413 485.368 76.115C484.916 76.469 484.375 76.7542 483.746 76.9705C483.136 77.1868 482.418 77.295 481.592 77.295ZM482.005 75.1415C483.677 75.1415 484.847 74.6892 485.516 73.7845C486.204 72.8602 486.548 71.4737 486.548 69.625V69.153C486.548 67.1863 486.224 65.6818 485.575 64.6395C484.926 63.5775 483.726 63.0465 481.976 63.0465C480.579 63.0465 479.527 63.607 478.819 64.728C478.131 65.8293 477.787 67.3142 477.787 69.1825C477.787 71.0705 478.131 72.5357 478.819 73.578C479.527 74.6203 480.589 75.1415 482.005 75.1415ZM500.125 60.9225C502.052 60.9225 503.478 61.3453 504.403 62.191C505.327 63.0367 505.789 64.3838 505.789 66.2325V77H503.901L503.4 74.758H503.282C502.829 75.3283 502.357 75.8102 501.866 76.2035C501.394 76.5772 500.843 76.8525 500.214 77.0295C499.604 77.2065 498.857 77.295 497.972 77.295C497.028 77.295 496.172 77.1278 495.405 76.7935C494.658 76.4592 494.068 75.9478 493.635 75.2595C493.202 74.5515 492.986 73.6665 492.986 72.6045C492.986 71.0312 493.606 69.8217 494.845 68.976C496.084 68.1107 497.991 67.6387 500.568 67.56L503.252 67.4715V66.5275C503.252 65.2098 502.967 64.2953 502.397 63.784C501.826 63.2727 501.02 63.017 499.978 63.017C499.152 63.017 498.365 63.1448 497.618 63.4005C496.87 63.6365 496.172 63.9118 495.523 64.2265L494.727 62.2795C495.415 61.9058 496.231 61.5912 497.175 61.3355C498.119 61.0602 499.102 60.9225 500.125 60.9225ZM500.892 69.3595C498.925 69.4382 497.559 69.7528 496.792 70.3035C496.044 70.8542 495.671 71.631 495.671 72.634C495.671 73.519 495.936 74.168 496.467 74.581C497.018 74.994 497.716 75.2005 498.562 75.2005C499.899 75.2005 501.01 74.8367 501.895 74.109C502.78 73.3617 503.223 72.221 503.223 70.687V69.271L500.892 69.3595Z" fill="#696969"/>
<path d="M649.395 55.937C652.149 55.937 654.155 56.4778 655.413 57.5595C656.672 58.6412 657.301 60.1653 657.301 62.132C657.301 62.9973 657.154 63.8332 656.859 64.6395C656.583 65.4262 656.121 66.1342 655.472 66.7635C654.823 67.3928 653.958 67.8943 652.876 68.268C651.795 68.622 650.467 68.799 648.894 68.799H646.475V77H643.82V55.937H649.395ZM649.159 58.2085H646.475V66.5275H648.599C649.936 66.5275 651.047 66.3898 651.932 66.1145C652.817 65.8195 653.476 65.3573 653.909 64.728C654.341 64.0987 654.558 63.2727 654.558 62.25C654.558 60.893 654.125 59.8802 653.26 59.2115C652.394 58.5428 651.028 58.2085 649.159 58.2085ZM668.702 60.893C668.997 60.893 669.312 60.9127 669.646 60.952C670 60.9717 670.305 61.011 670.561 61.07L670.236 63.4595C669.98 63.4005 669.695 63.3513 669.381 63.312C669.086 63.2727 668.8 63.253 668.525 63.253C667.915 63.253 667.335 63.3808 666.785 63.6365C666.234 63.8922 665.742 64.256 665.31 64.728C664.877 65.1803 664.533 65.731 664.277 66.38C664.041 67.029 663.923 67.7567 663.923 68.563V77H661.327V61.188H663.451L663.746 64.079H663.864C664.198 63.489 664.602 62.958 665.074 62.486C665.546 61.9943 666.086 61.6108 666.696 61.3355C667.306 61.0405 667.974 60.893 668.702 60.893ZM686.684 69.0645C686.684 70.3822 686.507 71.5523 686.153 72.575C685.819 73.578 685.327 74.4335 684.678 75.1415C684.049 75.8495 683.272 76.3903 682.347 76.764C681.443 77.118 680.43 77.295 679.309 77.295C678.267 77.295 677.303 77.118 676.418 76.764C675.533 76.3903 674.766 75.8495 674.117 75.1415C673.468 74.4335 672.957 73.578 672.583 72.575C672.229 71.5523 672.052 70.3822 672.052 69.0645C672.052 67.3142 672.347 65.8392 672.937 64.6395C673.527 63.4202 674.373 62.4958 675.474 61.8665C676.575 61.2175 677.883 60.893 679.397 60.893C680.833 60.893 682.092 61.2175 683.173 61.8665C684.275 62.4958 685.13 63.4202 685.74 64.6395C686.369 65.8392 686.684 67.3142 686.684 69.0645ZM674.736 69.0645C674.736 70.3035 674.894 71.3852 675.208 72.3095C675.543 73.2142 676.054 73.9123 676.742 74.404C677.431 74.8957 678.306 75.1415 679.368 75.1415C680.43 75.1415 681.305 74.8957 681.993 74.404C682.682 73.9123 683.183 73.2142 683.498 72.3095C683.832 71.3852 683.999 70.3035 683.999 69.0645C683.999 67.8058 683.832 66.734 683.498 65.849C683.164 64.964 682.652 64.2855 681.964 63.8135C681.295 63.3218 680.42 63.076 679.338 63.076C677.726 63.076 676.556 63.607 675.828 64.669C675.1 65.731 674.736 67.1962 674.736 69.0645ZM696.079 75.171C696.472 75.171 696.875 75.1415 697.288 75.0825C697.701 75.0038 698.036 74.9252 698.291 74.8465V76.823C698.016 76.9607 697.623 77.0688 697.111 77.1475C696.6 77.2458 696.108 77.295 695.636 77.295C694.81 77.295 694.043 77.1573 693.335 76.882C692.647 76.587 692.086 76.0855 691.654 75.3775C691.221 74.6695 691.005 73.6763 691.005 72.398V63.194H688.763V61.955L691.034 60.9225L692.067 57.5595H693.601V61.188H698.173V63.194H693.601V72.339C693.601 73.3027 693.827 74.0205 694.279 74.4925C694.751 74.9448 695.351 75.171 696.079 75.171ZM707.564 60.893C708.921 60.893 710.081 61.188 711.045 61.778C712.028 62.368 712.776 63.2038 713.287 64.2855C713.818 65.3475 714.083 66.5963 714.083 68.032V69.5955H703.257C703.296 71.3852 703.749 72.752 704.614 73.696C705.499 74.6203 706.728 75.0825 708.301 75.0825C709.304 75.0825 710.189 74.994 710.956 74.817C711.743 74.6203 712.549 74.345 713.375 73.991V76.2625C712.569 76.6165 711.773 76.8722 710.986 77.0295C710.199 77.2065 709.265 77.295 708.183 77.295C706.689 77.295 705.361 76.9902 704.201 76.3805C703.06 75.7708 702.165 74.8662 701.516 73.6665C700.887 72.4472 700.572 70.9623 700.572 69.212C700.572 67.4813 700.858 65.9965 701.428 64.7575C702.018 63.5185 702.834 62.5647 703.876 61.896C704.938 61.2273 706.168 60.893 707.564 60.893ZM707.534 63.017C706.295 63.017 705.312 63.4202 704.584 64.2265C703.876 65.0132 703.454 66.1145 703.316 67.5305H711.369C711.369 66.6258 711.232 65.8392 710.956 65.1705C710.681 64.5018 710.258 63.9807 709.688 63.607C709.137 63.2137 708.419 63.017 707.534 63.017ZM723.714 60.893C724.756 60.893 725.69 61.0897 726.516 61.483C727.362 61.8763 728.08 62.4762 728.67 63.2825H728.817L729.171 61.188H731.236V77.2655C731.236 78.7602 730.981 80.009 730.469 81.012C729.958 82.0347 729.181 82.8017 728.139 83.313C727.096 83.8243 725.769 84.08 724.156 84.08C723.016 84.08 721.963 83.9915 721 83.8145C720.056 83.6572 719.21 83.4113 718.463 83.077V80.6875C718.974 80.9432 719.535 81.1595 720.144 81.3365C720.754 81.5332 721.413 81.6807 722.121 81.779C722.829 81.8773 723.556 81.9265 724.304 81.9265C725.661 81.9265 726.723 81.5233 727.49 80.717C728.276 79.9303 728.67 78.8487 728.67 77.472V76.8525C728.67 76.6165 728.68 76.2822 728.699 75.8495C728.719 75.3972 728.739 75.0825 728.758 74.9055H728.64C728.09 75.7118 727.401 76.3117 726.575 76.705C725.769 77.0983 724.825 77.295 723.743 77.295C721.698 77.295 720.095 76.5772 718.935 75.1415C717.794 73.7058 717.224 71.6998 717.224 69.1235C717.224 67.4322 717.479 65.9768 717.991 64.7575C718.522 63.5185 719.269 62.5647 720.233 61.896C721.196 61.2273 722.357 60.893 723.714 60.893ZM724.068 63.076C723.183 63.076 722.426 63.312 721.796 63.784C721.187 64.256 720.715 64.9443 720.38 65.849C720.066 66.7537 719.908 67.855 719.908 69.153C719.908 71.1 720.262 72.5947 720.97 73.637C721.698 74.6597 722.75 75.171 724.127 75.171C724.933 75.171 725.621 75.0727 726.192 74.876C726.762 74.6597 727.234 74.3352 727.608 73.9025C727.981 73.4502 728.257 72.8798 728.434 72.1915C728.611 71.5032 728.699 70.687 728.699 69.743V69.1235C728.699 67.6878 728.532 66.5275 728.198 65.6425C727.883 64.7575 727.382 64.1085 726.693 63.6955C726.005 63.2825 725.13 63.076 724.068 63.076ZM738.854 61.188V77H736.258V61.188H738.854ZM737.586 55.2585C737.979 55.2585 738.323 55.3962 738.618 55.6715C738.933 55.9272 739.09 56.3402 739.09 56.9105C739.09 57.4612 738.933 57.8742 738.618 58.1495C738.323 58.4248 737.979 58.5625 737.586 58.5625C737.153 58.5625 736.789 58.4248 736.494 58.1495C736.199 57.8742 736.052 57.4612 736.052 56.9105C736.052 56.3402 736.199 55.9272 736.494 55.6715C736.789 55.3962 737.153 55.2585 737.586 55.2585ZM749.469 77.295C747.502 77.295 745.929 76.6165 744.749 75.2595C743.569 73.8828 742.979 71.8375 742.979 69.1235C742.979 66.4095 743.569 64.3642 744.749 62.9875C745.948 61.5912 747.532 60.893 749.498 60.893C750.324 60.893 751.042 61.0012 751.652 61.2175C752.261 61.4142 752.792 61.6895 753.245 62.0435C753.697 62.3975 754.081 62.7908 754.395 63.2235H754.572C754.553 62.9678 754.513 62.5942 754.454 62.1025C754.415 61.5912 754.395 61.188 754.395 60.893V54.58H756.991V77H754.897L754.513 74.876H754.395C754.081 75.3283 753.697 75.7413 753.245 76.115C752.792 76.469 752.252 76.7542 751.622 76.9705C751.013 77.1868 750.295 77.295 749.469 77.295ZM749.882 75.1415C751.553 75.1415 752.724 74.6892 753.392 73.7845C754.081 72.8602 754.425 71.4737 754.425 69.625V69.153C754.425 67.1863 754.1 65.6818 753.451 64.6395C752.802 63.5775 751.603 63.0465 749.852 63.0465C748.456 63.0465 747.404 63.607 746.696 64.728C746.007 65.8293 745.663 67.3142 745.663 69.1825C745.663 71.0705 746.007 72.5357 746.696 73.578C747.404 74.6203 748.466 75.1415 749.882 75.1415ZM768.002 60.9225C769.929 60.9225 771.355 61.3453 772.279 62.191C773.203 63.0367 773.666 64.3838 773.666 66.2325V77H771.778L771.276 74.758H771.158C770.706 75.3283 770.234 75.8102 769.742 76.2035C769.27 76.5772 768.719 76.8525 768.09 77.0295C767.48 77.2065 766.733 77.295 765.848 77.295C764.904 77.295 764.049 77.1278 763.282 76.7935C762.534 76.4592 761.944 75.9478 761.512 75.2595C761.079 74.5515 760.863 73.6665 760.863 72.6045C760.863 71.0312 761.482 69.8217 762.721 68.976C763.96 68.1107 765.868 67.6387 768.444 67.56L771.129 67.4715V66.5275C771.129 65.2098 770.843 64.2953 770.273 63.784C769.703 63.2727 768.896 63.017 767.854 63.017C767.028 63.017 766.241 63.1448 765.494 63.4005C764.747 63.6365 764.049 63.9118 763.4 64.2265L762.603 62.2795C763.291 61.9058 764.108 61.5912 765.052 61.3355C765.996 61.0602 766.979 60.9225 768.002 60.9225ZM768.769 69.3595C766.802 69.4382 765.435 69.7528 764.668 70.3035C763.921 70.8542 763.547 71.631 763.547 72.634C763.547 73.519 763.813 74.168 764.344 74.581C764.894 74.994 765.592 75.2005 766.438 75.2005C767.775 75.2005 768.887 74.8367 769.772 74.109C770.657 73.3617 771.099 72.221 771.099 70.687V69.271L768.769 69.3595Z" fill="#696969"/>
<path d="M126.744 70.2475C126.744 71.4865 126.439 72.5583 125.829 73.463C125.22 74.3677 124.335 75.0658 123.174 75.5575C122.034 76.0492 120.667 76.295 119.074 76.295C118.307 76.295 117.569 76.2458 116.861 76.1475C116.173 76.0688 115.514 75.941 114.885 75.764C114.275 75.587 113.705 75.3707 113.174 75.115V71.575C114.059 71.9683 115.032 72.3322 116.094 72.6665C117.156 72.9812 118.238 73.1385 119.339 73.1385C120.185 73.1385 120.873 73.0303 121.404 72.814C121.955 72.578 122.358 72.2633 122.614 71.87C122.869 71.457 122.997 70.985 122.997 70.454C122.997 69.864 122.83 69.3625 122.496 68.9495C122.161 68.5365 121.67 68.153 121.021 67.799C120.372 67.445 119.565 67.0713 118.602 66.678C117.953 66.4027 117.314 66.0978 116.684 65.7635C116.075 65.4095 115.524 64.9867 115.032 64.495C114.541 64.0033 114.147 63.4232 113.852 62.7545C113.557 62.0858 113.41 61.2992 113.41 60.3945C113.41 59.1948 113.695 58.1623 114.265 57.297C114.855 56.4317 115.671 55.7728 116.714 55.3205C117.776 54.8682 119.005 54.642 120.401 54.642C121.522 54.642 122.574 54.76 123.558 54.996C124.541 55.232 125.515 55.5663 126.478 55.999L125.269 59.0375C124.403 58.6638 123.568 58.3688 122.761 58.1525C121.955 57.9362 121.129 57.828 120.283 57.828C119.615 57.828 119.044 57.9362 118.572 58.1525C118.1 58.3492 117.746 58.6343 117.51 59.008C117.274 59.3817 117.156 59.8143 117.156 60.306C117.156 60.8763 117.304 61.3582 117.599 61.7515C117.894 62.1448 118.346 62.5185 118.956 62.8725C119.585 63.2068 120.391 63.5903 121.375 64.023C122.515 64.5147 123.479 65.026 124.266 65.557C125.052 66.088 125.662 66.7272 126.095 67.4745C126.527 68.2218 126.744 69.1462 126.744 70.2475ZM136.798 59.716C138.233 59.716 139.462 60.011 140.485 60.601C141.527 61.1713 142.334 61.9973 142.904 63.079C143.474 64.141 143.76 65.439 143.76 66.973V68.861H133.199C133.238 70.3163 133.641 71.4472 134.408 72.2535C135.175 73.0402 136.237 73.4335 137.594 73.4335C138.636 73.4335 139.561 73.3352 140.367 73.1385C141.193 72.9222 142.039 72.6173 142.904 72.224V75.2035C142.117 75.5772 141.301 75.8525 140.456 76.0295C139.61 76.2065 138.597 76.295 137.417 76.295C135.863 76.295 134.477 76 133.258 75.41C132.058 74.8003 131.114 73.8858 130.426 72.6665C129.757 71.4472 129.423 69.9328 129.423 68.1235C129.423 66.2945 129.727 64.7605 130.337 63.5215C130.966 62.2628 131.832 61.3188 132.933 60.6895C134.034 60.0405 135.323 59.716 136.798 59.716ZM136.798 62.4595C135.814 62.4595 135.008 62.784 134.379 63.433C133.769 64.0623 133.405 65.0063 133.287 66.265H140.161C140.161 65.5177 140.033 64.8588 139.777 64.2885C139.541 63.7182 139.177 63.2757 138.686 62.961C138.194 62.6267 137.565 62.4595 136.798 62.4595ZM152.877 59.716C153.88 59.716 154.784 59.9127 155.591 60.306C156.397 60.6993 157.075 61.2893 157.626 62.076H157.774L158.128 60.011H161.225V76.118C161.225 77.6323 160.94 78.9008 160.37 79.9235C159.799 80.9658 158.944 81.7525 157.803 82.2835C156.662 82.8145 155.237 83.08 153.526 83.08C152.385 83.08 151.333 83.0013 150.369 82.844C149.405 82.7063 148.491 82.4605 147.626 82.1065V79.0385C148.235 79.2942 148.865 79.5105 149.514 79.6875C150.182 79.8842 150.871 80.0317 151.579 80.13C152.287 80.2283 153.014 80.2775 153.762 80.2775C154.981 80.2775 155.905 79.9333 156.535 79.245C157.184 78.5567 157.508 77.5733 157.508 76.295V75.882C157.508 75.587 157.518 75.2428 157.538 74.8495C157.577 74.4562 157.606 74.1415 157.626 73.9055H157.508C156.957 74.7315 156.289 75.3412 155.502 75.7345C154.715 76.1082 153.811 76.295 152.788 76.295C150.841 76.295 149.317 75.5673 148.216 74.112C147.114 72.6567 146.564 70.631 146.564 68.035C146.564 66.2847 146.809 64.79 147.301 63.551C147.812 62.312 148.54 61.368 149.484 60.719C150.428 60.0503 151.559 59.716 152.877 59.716ZM153.85 62.7545C153.103 62.7545 152.464 62.961 151.933 63.374C151.421 63.7673 151.028 64.3573 150.753 65.144C150.497 65.9307 150.369 66.914 150.369 68.094C150.369 69.8247 150.664 71.1325 151.254 72.0175C151.844 72.9025 152.729 73.345 153.909 73.345C154.578 73.345 155.148 73.2663 155.62 73.109C156.092 72.932 156.476 72.6567 156.771 72.283C157.085 71.8897 157.321 71.398 157.479 70.808C157.636 70.1983 157.715 69.4707 157.715 68.625V68.0645C157.715 66.7862 157.577 65.7635 157.302 64.9965C157.026 64.2098 156.603 63.6395 156.033 63.2855C155.482 62.9315 154.755 62.7545 153.85 62.7545ZM180.163 60.011V76H177.243L176.741 73.935H176.564C176.23 74.4857 175.797 74.938 175.266 75.292C174.735 75.6263 174.155 75.8722 173.526 76.0295C172.897 76.2065 172.248 76.295 171.579 76.295C170.399 76.295 169.376 76.0885 168.511 75.6755C167.646 75.2625 166.987 74.6332 166.534 73.7875C166.082 72.9222 165.856 71.811 165.856 70.454V60.011H169.573V69.7165C169.573 70.8965 169.809 71.7913 170.281 72.401C170.753 72.991 171.5 73.286 172.523 73.286C173.526 73.286 174.313 73.0795 174.883 72.6665C175.453 72.2338 175.856 71.6143 176.092 70.808C176.328 70.0017 176.446 69.0085 176.446 67.8285V60.011H180.163ZM193.279 59.716C193.515 59.716 193.791 59.7258 194.105 59.7455C194.42 59.7652 194.685 59.8045 194.902 59.8635L194.577 63.315C194.4 63.2757 194.164 63.2462 193.869 63.2265C193.594 63.1872 193.348 63.1675 193.132 63.1675C192.542 63.1675 191.971 63.2658 191.421 63.4625C190.89 63.6395 190.408 63.9148 189.975 64.2885C189.562 64.6425 189.228 65.1047 188.972 65.675C188.736 66.2453 188.618 66.9238 188.618 67.7105V76H184.901V60.011H187.763L188.294 62.784H188.471C188.785 62.2137 189.179 61.7023 189.651 61.25C190.123 60.778 190.664 60.4043 191.273 60.129C191.903 59.8537 192.571 59.716 193.279 59.716ZM203.661 59.716C205.726 59.716 207.289 60.1683 208.351 61.073C209.433 61.958 209.974 63.3543 209.974 65.262V76H207.348L206.611 73.7875H206.493C206.041 74.3578 205.569 74.8397 205.077 75.233C204.605 75.6067 204.054 75.8722 203.425 76.0295C202.815 76.2065 202.068 76.295 201.183 76.295C200.239 76.295 199.383 76.118 198.616 75.764C197.869 75.41 197.279 74.8692 196.846 74.1415C196.414 73.3942 196.197 72.46 196.197 71.339C196.197 69.687 196.797 68.448 197.997 67.622C199.216 66.7763 201.055 66.3142 203.513 66.2355L206.286 66.147V65.3505C206.286 64.3278 206.041 63.6002 205.549 63.1675C205.057 62.7348 204.369 62.5185 203.484 62.5185C202.678 62.5185 201.901 62.6365 201.153 62.8725C200.406 63.1085 199.678 63.3838 198.97 63.6985L197.79 61.1025C198.577 60.6895 199.472 60.3552 200.475 60.0995C201.498 59.8438 202.56 59.716 203.661 59.716ZM204.339 68.507C202.707 68.566 201.576 68.8512 200.947 69.3625C200.318 69.8542 200.003 70.5228 200.003 71.3685C200.003 72.1158 200.229 72.6567 200.681 72.991C201.134 73.3253 201.714 73.4925 202.422 73.4925C203.504 73.4925 204.418 73.1877 205.165 72.578C205.913 71.9487 206.286 71.0243 206.286 69.805V68.448L204.339 68.507Z" fill="#696969"/>
<path d="M384.481 39.2475C384.481 40.4865 384.176 41.5583 383.566 42.463C382.957 43.3677 382.072 44.0658 380.911 44.5575C379.771 45.0492 378.404 45.295 376.811 45.295C376.044 45.295 375.306 45.2458 374.598 45.1475C373.91 45.0688 373.251 44.941 372.622 44.764C372.012 44.587 371.442 44.3707 370.911 44.115V40.575C371.796 40.9683 372.769 41.3322 373.831 41.6665C374.893 41.9812 375.975 42.1385 377.076 42.1385C377.922 42.1385 378.61 42.0303 379.141 41.814C379.692 41.578 380.095 41.2633 380.351 40.87C380.607 40.457 380.734 39.985 380.734 39.454C380.734 38.864 380.567 38.3625 380.233 37.9495C379.899 37.5365 379.407 37.153 378.758 36.799C378.109 36.445 377.303 36.0713 376.339 35.678C375.69 35.4027 375.051 35.0978 374.421 34.7635C373.812 34.4095 373.261 33.9867 372.769 33.495C372.278 33.0033 371.884 32.4232 371.589 31.7545C371.294 31.0858 371.147 30.2992 371.147 29.3945C371.147 28.1948 371.432 27.1623 372.002 26.297C372.592 25.4317 373.409 24.7728 374.451 24.3205C375.513 23.8682 376.742 23.642 378.138 23.642C379.259 23.642 380.312 23.76 381.295 23.996C382.278 24.232 383.252 24.5663 384.215 24.999L383.006 28.0375C382.141 27.6638 381.305 27.3688 380.498 27.1525C379.692 26.9362 378.866 26.828 378.02 26.828C377.352 26.828 376.781 26.9362 376.309 27.1525C375.837 27.3492 375.483 27.6343 375.247 28.008C375.011 28.3817 374.893 28.8143 374.893 29.306C374.893 29.8763 375.041 30.3582 375.336 30.7515C375.631 31.1448 376.083 31.5185 376.693 31.8725C377.322 32.2068 378.129 32.5903 379.112 33.023C380.253 33.5147 381.216 34.026 382.003 34.557C382.79 35.088 383.399 35.7272 383.832 36.4745C384.265 37.2218 384.481 38.1462 384.481 39.2475ZM394.476 28.716C396.541 28.716 398.104 29.1683 399.166 30.073C400.248 30.958 400.789 32.3543 400.789 34.262V45H398.163L397.426 42.7875H397.308C396.855 43.3578 396.383 43.8397 395.892 44.233C395.42 44.6067 394.869 44.8722 394.24 45.0295C393.63 45.2065 392.883 45.295 391.998 45.295C391.054 45.295 390.198 45.118 389.431 44.764C388.684 44.41 388.094 43.8692 387.661 43.1415C387.228 42.3942 387.012 41.46 387.012 40.339C387.012 38.687 387.612 37.448 388.812 36.622C390.031 35.7763 391.87 35.3142 394.328 35.2355L397.101 35.147V34.3505C397.101 33.3278 396.855 32.6002 396.364 32.1675C395.872 31.7348 395.184 31.5185 394.299 31.5185C393.492 31.5185 392.715 31.6365 391.968 31.8725C391.221 32.1085 390.493 32.3838 389.785 32.6985L388.605 30.1025C389.392 29.6895 390.287 29.3552 391.29 29.0995C392.312 28.8438 393.374 28.716 394.476 28.716ZM395.154 37.507C393.522 37.566 392.391 37.8512 391.762 38.3625C391.132 38.8542 390.818 39.5228 390.818 40.3685C390.818 41.1158 391.044 41.6567 391.496 41.991C391.948 42.3253 392.529 42.4925 393.237 42.4925C394.318 42.4925 395.233 42.1877 395.98 41.578C396.727 40.9487 397.101 40.0243 397.101 38.805V37.448L395.154 37.507ZM411.641 42.3155C412.113 42.3155 412.566 42.2762 412.998 42.1975C413.431 42.0992 413.834 41.991 414.208 41.873V44.646C413.815 44.823 413.303 44.9705 412.674 45.0885C412.045 45.2262 411.386 45.295 410.697 45.295C409.793 45.295 408.967 45.1475 408.219 44.8525C407.492 44.5378 406.902 44.0068 406.449 43.2595C406.017 42.5122 405.8 41.4698 405.8 40.1325V31.8135H403.647V30.191L406.007 28.893L407.187 25.5005H409.517V29.011H414.06V31.8135H409.517V40.103C409.517 40.8503 409.714 41.4108 410.107 41.7845C410.501 42.1385 411.012 42.3155 411.641 42.3155ZM421.148 29.011V45H417.431V29.011H421.148ZM419.289 22.8455C419.84 22.8455 420.322 22.993 420.735 23.288C421.148 23.5633 421.354 24.0648 421.354 24.7925C421.354 25.5005 421.148 26.0118 420.735 26.3265C420.322 26.6215 419.84 26.769 419.289 26.769C418.719 26.769 418.227 26.6215 417.814 26.3265C417.421 26.0118 417.224 25.5005 417.224 24.7925C417.224 24.0648 417.421 23.5633 417.814 23.288C418.227 22.993 418.719 22.8455 419.289 22.8455ZM436.786 40.3685C436.786 41.4305 436.53 42.3352 436.019 43.0825C435.508 43.8102 434.75 44.3608 433.747 44.7345C432.764 45.1082 431.555 45.295 430.119 45.295C428.998 45.295 428.034 45.2163 427.228 45.059C426.422 44.9017 425.655 44.6558 424.927 44.3215V41.165C425.714 41.5387 426.589 41.8533 427.552 42.109C428.516 42.3647 429.411 42.4925 430.237 42.4925C431.26 42.4925 431.997 42.3352 432.449 42.0205C432.902 41.7058 433.128 41.283 433.128 40.752C433.128 40.4373 433.039 40.1522 432.862 39.8965C432.685 39.6408 432.341 39.3753 431.83 39.1C431.319 38.805 430.542 38.4412 429.499 38.0085C428.477 37.5955 427.621 37.1825 426.933 36.7695C426.264 36.3565 425.753 35.8648 425.399 35.2945C425.065 34.7045 424.897 33.967 424.897 33.082C424.897 31.6463 425.468 30.5647 426.608 29.837C427.749 29.0897 429.254 28.716 431.122 28.716C432.105 28.716 433.03 28.8143 433.895 29.011C434.78 29.188 435.665 29.483 436.55 29.896L435.37 32.6395C434.878 32.4232 434.387 32.2363 433.895 32.079C433.423 31.902 432.941 31.7643 432.449 31.666C431.977 31.5677 431.496 31.5185 431.004 31.5185C430.198 31.5185 429.588 31.6463 429.175 31.902C428.762 32.138 428.555 32.4723 428.555 32.905C428.555 33.2393 428.654 33.5343 428.85 33.79C429.067 34.026 429.431 34.2718 429.942 34.5275C430.473 34.7635 431.22 35.0782 432.184 35.4715C433.148 35.8452 433.964 36.2385 434.632 36.6515C435.321 37.0448 435.852 37.5365 436.225 38.1265C436.599 38.7165 436.786 39.4638 436.786 40.3685ZM448.652 31.8135H444.787V45H441.07V31.8135H438.504V30.0435L441.07 28.9815V27.89C441.07 26.5133 441.287 25.4317 441.719 24.645C442.152 23.8583 442.781 23.2978 443.607 22.9635C444.433 22.6095 445.407 22.4325 446.528 22.4325C447.315 22.4325 448.023 22.5013 448.652 22.639C449.281 22.757 449.802 22.8947 450.215 23.052L449.271 25.825C448.937 25.7267 448.563 25.6382 448.15 25.5595C447.757 25.4612 447.324 25.412 446.852 25.412C446.144 25.412 445.623 25.6382 445.289 26.0905C444.955 26.5428 444.787 27.1722 444.787 27.9785V29.011H448.652V31.8135ZM457.682 28.716C459.747 28.716 461.31 29.1683 462.372 30.073C463.454 30.958 463.995 32.3543 463.995 34.262V45H461.369L460.632 42.7875H460.514C460.061 43.3578 459.589 43.8397 459.098 44.233C458.626 44.6067 458.075 44.8722 457.446 45.0295C456.836 45.2065 456.089 45.295 455.204 45.295C454.26 45.295 453.404 45.118 452.637 44.764C451.89 44.41 451.3 43.8692 450.867 43.1415C450.434 42.3942 450.218 41.46 450.218 40.339C450.218 38.687 450.818 37.448 452.018 36.622C453.237 35.7763 455.076 35.3142 457.534 35.2355L460.307 35.147V34.3505C460.307 33.3278 460.061 32.6002 459.57 32.1675C459.078 31.7348 458.39 31.5185 457.505 31.5185C456.698 31.5185 455.921 31.6365 455.174 31.8725C454.427 32.1085 453.699 32.3838 452.991 32.6985L451.811 30.1025C452.598 29.6895 453.493 29.3552 454.496 29.0995C455.518 28.8438 456.58 28.716 457.682 28.716ZM458.36 37.507C456.728 37.566 455.597 37.8512 454.968 38.3625C454.338 38.8542 454.024 39.5228 454.024 40.3685C454.024 41.1158 454.25 41.6567 454.702 41.991C455.154 42.3253 455.735 42.4925 456.443 42.4925C457.524 42.4925 458.439 42.1877 459.186 41.578C459.933 40.9487 460.307 40.0243 460.307 38.805V37.448L458.36 37.507ZM475.113 45.295C473.599 45.295 472.281 45.0098 471.16 44.4395C470.059 43.8495 469.203 42.9547 468.593 41.755C468.003 40.5357 467.708 38.982 467.708 37.094C467.708 35.1273 468.033 33.5343 468.682 32.315C469.351 31.076 470.265 30.1713 471.425 29.601C472.586 29.011 473.913 28.716 475.408 28.716C476.411 28.716 477.306 28.8143 478.092 29.011C478.879 29.2077 479.548 29.4437 480.098 29.719L479.007 32.6395C478.397 32.4035 477.788 32.2068 477.178 32.0495C476.568 31.8725 475.978 31.784 475.408 31.784C474.523 31.784 473.785 31.9807 473.195 32.374C472.625 32.7673 472.202 33.3573 471.927 34.144C471.652 34.911 471.514 35.8845 471.514 37.0645C471.514 38.2052 471.652 39.159 471.927 39.926C472.222 40.693 472.655 41.2732 473.225 41.6665C473.795 42.0402 474.503 42.227 475.349 42.227C476.254 42.227 477.05 42.1188 477.738 41.9025C478.427 41.6862 479.076 41.3912 479.685 41.0175V44.233C479.076 44.6067 478.417 44.8722 477.709 45.0295C477.021 45.2065 476.155 45.295 475.113 45.295ZM478.004 48.776C478.004 49.484 477.856 50.0838 477.561 50.5755C477.266 51.0672 476.794 51.4408 476.145 51.6965C475.496 51.9522 474.641 52.08 473.579 52.08C473.205 52.08 472.861 52.0505 472.546 51.9915C472.232 51.9522 471.956 51.903 471.72 51.844V49.72C471.956 49.779 472.251 49.8282 472.605 49.8675C472.979 49.9265 473.313 49.956 473.608 49.956C474.041 49.956 474.385 49.8773 474.641 49.72C474.916 49.5823 475.054 49.3168 475.054 48.9235C475.054 48.5105 474.847 48.1663 474.434 47.891C474.021 47.6353 473.402 47.4485 472.576 47.3305L473.726 45H476.116L475.585 46.1505C476.018 46.2488 476.411 46.416 476.765 46.652C477.139 46.888 477.434 47.1732 477.65 47.5075C477.886 47.8615 478.004 48.2843 478.004 48.776ZM489.803 28.716C491.868 28.716 493.432 29.1683 494.494 30.073C495.575 30.958 496.116 32.3543 496.116 34.262V45H493.491L492.753 42.7875H492.635C492.183 43.3578 491.711 43.8397 491.219 44.233C490.747 44.6067 490.197 44.8722 489.567 45.0295C488.958 45.2065 488.21 45.295 487.325 45.295C486.381 45.295 485.526 45.118 484.759 44.764C484.011 44.41 483.421 43.8692 482.989 43.1415C482.556 42.3942 482.34 41.46 482.34 40.339C482.34 38.687 482.94 37.448 484.139 36.622C485.359 35.7763 487.197 35.3142 489.656 35.2355L492.429 35.147V34.3505C492.429 33.3278 492.183 32.6002 491.691 32.1675C491.2 31.7348 490.511 31.5185 489.626 31.5185C488.82 31.5185 488.043 31.6365 487.296 31.8725C486.548 32.1085 485.821 32.3838 485.113 32.6985L483.933 30.1025C484.719 29.6895 485.614 29.3552 486.617 29.0995C487.64 28.8438 488.702 28.716 489.803 28.716ZM490.482 37.507C488.849 37.566 487.719 37.8512 487.089 38.3625C486.46 38.8542 486.145 39.5228 486.145 40.3685C486.145 41.1158 486.371 41.6567 486.824 41.991C487.276 42.3253 487.856 42.4925 488.564 42.4925C489.646 42.4925 490.56 42.1877 491.308 41.578C492.055 40.9487 492.429 40.0243 492.429 38.805V37.448L490.482 37.507ZM483.962 27.1525C484.021 26.4445 484.149 25.8348 484.346 25.3235C484.562 24.7925 484.828 24.35 485.142 23.996C485.477 23.642 485.85 23.3765 486.263 23.1995C486.676 23.0225 487.129 22.934 487.62 22.934C488.033 22.934 488.436 23.0127 488.83 23.17C489.223 23.3273 489.597 23.5142 489.951 23.7305C490.324 23.9468 490.688 24.1337 491.042 24.291C491.396 24.4483 491.74 24.527 492.075 24.527C492.429 24.527 492.734 24.3893 492.989 24.114C493.265 23.8387 493.461 23.4355 493.579 22.9045H495.497C495.379 24.2812 494.976 25.3333 494.287 26.061C493.619 26.769 492.802 27.123 491.839 27.123C491.426 27.123 491.032 27.0443 490.659 26.887C490.285 26.7297 489.902 26.5428 489.508 26.3265C489.135 26.1102 488.771 25.9233 488.417 25.766C488.082 25.6087 487.738 25.53 487.384 25.53C487.03 25.53 486.716 25.6677 486.44 25.943C486.185 26.1987 485.998 26.6018 485.88 27.1525H483.962ZM515.052 36.976C515.052 38.3133 514.875 39.4933 514.521 40.516C514.167 41.5387 513.656 42.4138 512.987 43.1415C512.338 43.8495 511.532 44.3903 510.568 44.764C509.624 45.118 508.572 45.295 507.412 45.295C506.31 45.295 505.297 45.118 504.373 44.764C503.449 44.3903 502.642 43.8495 501.954 43.1415C501.285 42.4138 500.764 41.5387 500.391 40.516C500.017 39.4933 499.83 38.3133 499.83 36.976C499.83 35.206 500.135 33.7113 500.745 32.492C501.354 31.253 502.229 30.3188 503.37 29.6895C504.53 29.0405 505.897 28.716 507.471 28.716C508.965 28.716 510.273 29.0405 511.394 29.6895C512.535 30.3188 513.43 31.253 514.079 32.492C514.728 33.7113 515.052 35.206 515.052 36.976ZM503.636 36.976C503.636 38.097 503.763 39.0607 504.019 39.867C504.294 40.6537 504.707 41.2535 505.258 41.6665C505.828 42.0795 506.556 42.286 507.441 42.286C508.346 42.286 509.073 42.0795 509.624 41.6665C510.194 41.2535 510.607 40.6537 510.863 39.867C511.119 39.0607 511.247 38.097 511.247 36.976C511.247 35.8353 511.109 34.8815 510.834 34.1145C510.578 33.3278 510.165 32.7378 509.595 32.3445C509.044 31.9315 508.326 31.725 507.441 31.725C506.104 31.725 505.13 32.1773 504.521 33.082C503.931 33.9867 503.636 35.2847 503.636 36.976Z" fill="#696969"/>
<path d="M649.622 24.937C652.356 24.937 654.342 25.5073 655.581 26.648C656.84 27.7887 657.469 29.362 657.469 31.368C657.469 32.2727 657.331 33.138 657.056 33.964C656.781 34.7703 656.318 35.498 655.669 36.147C655.02 36.796 654.165 37.3073 653.103 37.681C652.061 38.0547 650.763 38.2415 649.209 38.2415H647.114V46H643.338V24.937H649.622ZM649.386 28.064H647.114V35.1145H648.825C649.848 35.1145 650.713 34.9965 651.421 34.7605C652.149 34.5048 652.7 34.1115 653.073 33.5805C653.447 33.0495 653.634 32.3612 653.634 31.5155C653.634 30.3552 653.29 29.4898 652.601 28.9195C651.913 28.3492 650.841 28.064 649.386 28.064ZM669.627 29.716C669.863 29.716 670.138 29.7258 670.453 29.7455C670.768 29.7652 671.033 29.8045 671.25 29.8635L670.925 33.315C670.748 33.2757 670.512 33.2462 670.217 33.2265C669.942 33.1872 669.696 33.1675 669.48 33.1675C668.89 33.1675 668.319 33.2658 667.769 33.4625C667.238 33.6395 666.756 33.9148 666.323 34.2885C665.91 34.6425 665.576 35.1047 665.32 35.675C665.084 36.2453 664.966 36.9238 664.966 37.7105V46H661.249V30.011H664.111L664.642 32.784H664.819C665.133 32.2137 665.527 31.7023 665.999 31.25C666.471 30.778 667.011 30.4043 667.621 30.129C668.25 29.8537 668.919 29.716 669.627 29.716ZM677.93 30.011V46H674.213V30.011H677.93ZM676.071 23.8455C676.622 23.8455 677.104 23.993 677.517 24.288C677.93 24.5633 678.136 25.0648 678.136 25.7925C678.136 26.5005 677.93 27.0118 677.517 27.3265C677.104 27.6215 676.622 27.769 676.071 27.769C675.501 27.769 675.009 27.6215 674.596 27.3265C674.203 27.0118 674.006 26.5005 674.006 25.7925C674.006 25.0648 674.203 24.5633 674.596 24.288C675.009 23.993 675.501 23.8455 676.071 23.8455ZM686.37 46L680.293 30.011H684.217L687.403 39.2445C687.54 39.6182 687.668 40.0312 687.786 40.4835C687.904 40.9162 688.003 41.3488 688.081 41.7815C688.18 42.1945 688.239 42.5583 688.258 42.873H688.376C688.416 42.5387 688.484 42.165 688.583 41.752C688.681 41.3193 688.789 40.8867 688.907 40.454C689.045 40.0213 689.173 39.6182 689.291 39.2445L692.477 30.011H696.4L690.323 46H686.37ZM705.159 29.716C707.224 29.716 708.787 30.1683 709.849 31.073C710.931 31.958 711.472 33.3543 711.472 35.262V46H708.846L708.109 43.7875H707.991C707.538 44.3578 707.066 44.8397 706.575 45.233C706.103 45.6067 705.552 45.8722 704.923 46.0295C704.313 46.2065 703.566 46.295 702.681 46.295C701.737 46.295 700.881 46.118 700.114 45.764C699.367 45.41 698.777 44.8692 698.344 44.1415C697.912 43.3942 697.695 42.46 697.695 41.339C697.695 39.687 698.295 38.448 699.495 37.622C700.714 36.7763 702.553 36.3142 705.011 36.2355L707.784 36.147V35.3505C707.784 34.3278 707.538 33.6002 707.047 33.1675C706.555 32.7348 705.867 32.5185 704.982 32.5185C704.175 32.5185 703.399 32.6365 702.651 32.8725C701.904 33.1085 701.176 33.3838 700.468 33.6985L699.288 31.1025C700.075 30.6895 700.97 30.3552 701.973 30.0995C702.995 29.8438 704.057 29.716 705.159 29.716ZM705.837 38.507C704.205 38.566 703.074 38.8512 702.445 39.3625C701.815 39.8542 701.501 40.5228 701.501 41.3685C701.501 42.1158 701.727 42.6567 702.179 42.991C702.632 43.3253 703.212 43.4925 703.92 43.4925C705.001 43.4925 705.916 43.1877 706.663 42.578C707.411 41.9487 707.784 41.0243 707.784 39.805V38.448L705.837 38.507ZM722.59 46.295C721.076 46.295 719.758 46.0098 718.637 45.4395C717.536 44.8495 716.68 43.9547 716.07 42.755C715.48 41.5357 715.185 39.982 715.185 38.094C715.185 36.1273 715.51 34.5343 716.159 33.315C716.828 32.076 717.742 31.1713 718.902 30.601C720.063 30.011 721.39 29.716 722.885 29.716C723.888 29.716 724.783 29.8143 725.569 30.011C726.356 30.2077 727.025 30.4437 727.575 30.719L726.484 33.6395C725.874 33.4035 725.265 33.2068 724.655 33.0495C724.045 32.8725 723.455 32.784 722.885 32.784C722 32.784 721.262 32.9807 720.672 33.374C720.102 33.7673 719.679 34.3573 719.404 35.144C719.129 35.911 718.991 36.8845 718.991 38.0645C718.991 39.2052 719.129 40.159 719.404 40.926C719.699 41.693 720.132 42.2732 720.702 42.6665C721.272 43.0402 721.98 43.227 722.826 43.227C723.731 43.227 724.527 43.1188 725.215 42.9025C725.904 42.6862 726.553 42.3912 727.162 42.0175V45.233C726.553 45.6067 725.894 45.8722 725.186 46.0295C724.498 46.2065 723.632 46.295 722.59 46.295ZM734.625 30.011V46H730.908V30.011H734.625ZM732.767 23.8455C733.317 23.8455 733.799 23.993 734.212 24.288C734.625 24.5633 734.832 25.0648 734.832 25.7925C734.832 26.5005 734.625 27.0118 734.212 27.3265C733.799 27.6215 733.317 27.769 732.767 27.769C732.196 27.769 731.705 27.6215 731.292 27.3265C730.898 27.0118 730.702 26.5005 730.702 25.7925C730.702 25.0648 730.898 24.5633 731.292 24.288C731.705 23.993 732.196 23.8455 732.767 23.8455ZM744.659 46.295C742.81 46.295 741.305 45.6067 740.145 44.23C739.004 42.8337 738.434 40.7687 738.434 38.035C738.434 35.3013 739.014 33.2363 740.175 31.84C741.335 30.424 742.859 29.716 744.747 29.716C745.534 29.716 746.222 29.8242 746.812 30.0405C747.422 30.2372 747.943 30.5125 748.376 30.8665C748.808 31.2205 749.172 31.6138 749.467 32.0465H749.644C749.585 31.7712 749.526 31.3483 749.467 30.778C749.408 30.2077 749.379 29.6767 749.379 29.185V23.58H753.096V46H750.205L749.526 43.9055H749.379C749.084 44.3382 748.72 44.7413 748.287 45.115C747.854 45.469 747.343 45.7542 746.753 45.9705C746.163 46.1868 745.465 46.295 744.659 46.295ZM745.78 43.286C747.156 43.286 748.13 42.8927 748.7 42.106C749.27 41.3193 749.556 40.1295 749.556 38.5365V38.0645C749.556 36.3338 749.28 35.0162 748.73 34.1115C748.199 33.2068 747.196 32.7545 745.721 32.7545C744.6 32.7545 743.734 33.2265 743.125 34.1705C742.515 35.0948 742.21 36.4027 742.21 38.094C742.21 39.7853 742.515 41.0735 743.125 41.9585C743.734 42.8435 744.619 43.286 745.78 43.286ZM764.216 29.716C766.281 29.716 767.845 30.1683 768.907 31.073C769.989 31.958 770.529 33.3543 770.529 35.262V46H767.904L767.166 43.7875H767.048C766.596 44.3578 766.124 44.8397 765.632 45.233C765.16 45.6067 764.61 45.8722 763.98 46.0295C763.371 46.2065 762.623 46.295 761.738 46.295C760.794 46.295 759.939 46.118 759.172 45.764C758.425 45.41 757.835 44.8692 757.402 44.1415C756.969 43.3942 756.753 42.46 756.753 41.339C756.753 39.687 757.353 38.448 758.552 37.622C759.772 36.7763 761.611 36.3142 764.069 36.2355L766.842 36.147V35.3505C766.842 34.3278 766.596 33.6002 766.104 33.1675C765.613 32.7348 764.924 32.5185 764.039 32.5185C763.233 32.5185 762.456 32.6365 761.709 32.8725C760.962 33.1085 760.234 33.3838 759.526 33.6985L758.346 31.1025C759.133 30.6895 760.027 30.3552 761.03 30.0995C762.053 29.8438 763.115 29.716 764.216 29.716ZM764.895 38.507C763.263 38.566 762.132 38.8512 761.502 39.3625C760.873 39.8542 760.558 40.5228 760.558 41.3685C760.558 42.1158 760.785 42.6567 761.237 42.991C761.689 43.3253 762.269 43.4925 762.977 43.4925C764.059 43.4925 764.974 43.1877 765.721 42.578C766.468 41.9487 766.842 41.0243 766.842 39.805V38.448L764.895 38.507ZM780.468 46.295C778.619 46.295 777.114 45.6067 775.954 44.23C774.813 42.8337 774.243 40.7687 774.243 38.035C774.243 35.3013 774.823 33.2363 775.984 31.84C777.144 30.424 778.668 29.716 780.556 29.716C781.343 29.716 782.031 29.8242 782.621 30.0405C783.231 30.2372 783.752 30.5125 784.185 30.8665C784.617 31.2205 784.981 31.6138 785.276 32.0465H785.453C785.394 31.7712 785.335 31.3483 785.276 30.778C785.217 30.2077 785.188 29.6767 785.188 29.185V23.58H788.905V46H786.014L785.335 43.9055H785.188C784.893 44.3382 784.529 44.7413 784.096 45.115C783.663 45.469 783.152 45.7542 782.562 45.9705C781.972 46.1868 781.274 46.295 780.468 46.295ZM781.589 43.286C782.965 43.286 783.939 42.8927 784.509 42.106C785.079 41.3193 785.365 40.1295 785.365 38.5365V38.0645C785.365 36.3338 785.089 35.0162 784.539 34.1115C784.008 33.2068 783.005 32.7545 781.53 32.7545C780.409 32.7545 779.543 33.2265 778.934 34.1705C778.324 35.0948 778.019 36.4027 778.019 38.094C778.019 39.7853 778.324 41.0735 778.934 41.9585C779.543 42.8435 780.428 43.286 781.589 43.286ZM800.084 29.716C801.52 29.716 802.749 30.011 803.772 30.601C804.814 31.1713 805.621 31.9973 806.191 33.079C806.761 34.141 807.046 35.439 807.046 36.973V38.861H796.485C796.525 40.3163 796.928 41.4472 797.695 42.2535C798.462 43.0402 799.524 43.4335 800.881 43.4335C801.923 43.4335 802.848 43.3352 803.654 43.1385C804.48 42.9222 805.326 42.6173 806.191 42.224V45.2035C805.404 45.5772 804.588 45.8525 803.742 46.0295C802.897 46.2065 801.884 46.295 800.704 46.295C799.15 46.295 797.764 46 796.544 45.41C795.345 44.8003 794.401 43.8858 793.712 42.6665C793.044 41.4472 792.709 39.9328 792.709 38.1235C792.709 36.2945 793.014 34.7605 793.624 33.5215C794.253 32.2628 795.119 31.3188 796.22 30.6895C797.321 30.0405 798.609 29.716 800.084 29.716ZM800.084 32.4595C799.101 32.4595 798.295 32.784 797.665 33.433C797.056 34.0623 796.692 35.0063 796.574 36.265H803.447C803.447 35.5177 803.32 34.8588 803.064 34.2885C802.828 33.7182 802.464 33.2757 801.972 32.961C801.481 32.6267 800.851 32.4595 800.084 32.4595Z" fill="#696969"/>
<path d="M291 18H335" stroke="#696969" stroke-width="6"/>
<path d="M280 21.5H283M295 21.5H283M283 21.5L289 46" stroke="#696969" stroke-width="6"/>
<path d="M296 55H328" stroke="#696969" stroke-width="6"/>
<path d="M299 55L294 18" stroke="#696969" stroke-width="6"/>
<path d="M325 55L332 18" stroke="#696969" stroke-width="6"/>
<path d="M286 46H298" stroke="#696969" stroke-width="6"/>
<path d="M345 21.5H342M330 21.5H342M342 21.5L336 46" stroke="#696969" stroke-width="6"/>
<path d="M339 46H327" stroke="#696969" stroke-width="6"/>
<path d="M312.25 26L314.648 30.9929L319.858 31.8734L316.13 35.8396L316.952 41.3766L312.25 38.835L307.548 41.3766L308.37 35.8396L304.642 31.8734L309.852 30.9929L312.25 26Z" fill="#696969"/>
<path d="M298 66H326M333 74H330M291 74H294M291 82H294M333 82H330M294 82V74M294 82H330M294 74H330M330 82V74" stroke="#696969" stroke-width="6"/>
<path d="M301 74V66M323 74V66M316.5 66V57M307.5 66V57" stroke="#696969" stroke-width="6"/>
<path d="M561 44H564M613 44H609.5M609.5 44V82M609.5 44H604M609.5 85V82M609.5 82H564M561 82H564M564 82V44M564 44H570M570 44V33C578 13 597 13 604 33V44M570 44H604" stroke="#696969" stroke-width="6"/>
<circle cx="587" cy="59" r="5" fill="#696969"/>
<rect x="585" y="60" width="4" height="12" fill="#696969"/>
</svg>
